Coordinates
version=1
nRows=24
nColumns=24
inDegrees=yes

Units are S.I. units (second, meters, Newtons, ...)
Angles are in degrees.

endheader
time	pelvis_tilt	pelvis_list	pelvis_rotation	pelvis_tx	pelvis_ty	pelvis_tz	hip_flexion_r	hip_adduction_r	hip_rotation_r	knee_angle_r	ankle_angle_r	subtalar_angle_r	mtp_angle_r	hip_flexion_l	hip_adduction_l	hip_rotation_l	knee_angle_l	ankle_angle_l	subtalar_angle_l	mtp_angle_l	lumbar_extension	lumbar_bending	lumbar_rotation
      1.42483333	      9.86044744	      5.43417968	     -5.26486260	      0.31556620	      1.02813559	      0.31499230	      5.58519392	     -8.46454464	     -0.08267147	    -71.24412069	    -12.22561772	    -11.56732774	      5.69256898	     -4.62882423	     11.34363924	      4.86450442	     -8.94911667	      2.72231952	    -18.90508162	     -6.38413810	    -22.88007266	     -0.94000154	     -2.01376913
      1.42900000	      9.84900398	      5.17007505	     -5.15478760	      0.32036328	      1.02903199	      0.31448306	      6.12893687	     -8.12701369	     -0.23889826	    -71.01261591	    -11.60995702	    -11.77993683	      5.57971708	     -5.18062876	     11.07942616	      4.99720930	     -8.49016257	      2.75176306	    -18.83625189	     -6.38355652	    -22.90484065	     -0.54355247	     -2.17700460
      1.43316667	      9.87626400	      4.91805308	     -5.03627589	      0.32518185	      1.02993552	      0.31396586	      6.60705457	     -7.80960692	     -0.41003919	    -70.70951923	    -11.00655988	    -11.95975786	      5.31633820	     -5.80560022	     10.83055799	      5.20445956	     -7.96581249	      2.75752948	    -18.83360652	     -6.38491152	    -22.94112661	     -0.15761138	     -2.53529999
      1.43733333	      9.87306158	      4.66071018	     -4.91126119	      0.32998884	      1.03076679	      0.31345260	      7.10485543	     -7.48184056	     -0.59176271	    -70.35453405	    -10.36578169	    -12.14196387	      4.99729832	     -6.37562507	     10.56758990	      5.36296278	     -7.48303172	      2.75852659	    -18.80337005	     -6.38848426	    -22.95911240	      0.22982938	     -2.75548506
      1.44150000	      9.85452779	      4.43622559	     -4.77282664	      0.33477500	      1.03149591	      0.31290726	      7.61547259	     -7.19404072	     -0.78774685	    -69.97704718	     -9.58844457	    -12.25825708	      1.21231900	     -6.92691599	     10.34142907	      5.59909413	     -6.99757407	      2.71084010	    -18.92815866	     -6.44934231	    -22.96922014	      0.56663996	     -2.87211861
      1.44566667	      9.81943265	      4.17085743	     -4.65779036	      0.33959409	      1.03221343	      0.31244270	      8.11416664	     -6.84065533	     -0.94584816	    -69.49652322	     -8.92969522	    -12.43787663	      1.20587276	     -7.43118908	     10.05543838	      5.61399448	     -6.56921568	      2.72825323	    -18.73445326	     -6.44923440	    -22.95323160	      0.93635382	     -2.96177796
      1.44983333	      9.84117403	      3.91334844	     -4.53086539	      0.34442179	      1.03292954	      0.31191768	      8.53304923	     -6.52121199	     -1.14091717	    -68.96247529	     -8.28492117	    -12.55683752	      1.17832174	     -8.01483381	      9.78377561	      5.69929656	     -6.11097078	      2.82750734	    -18.55900408	     -6.44690110	    -22.99175342	      1.35587097	     -3.18190307
      1.45400000	      9.84008308	      3.67299789	     -4.39506201	      0.34921700	      1.03357258	      0.31143447	      8.96412178	     -6.20578041	     -1.32573368	    -68.37736423	     -7.60451625	    -12.67750744	      1.12821272	     -8.56021664	      9.52304484	      5.79587527	     -5.66969274	      2.87851270	    -18.40591513	     -6.44657873	    -23.01880230	      1.71088260	     -3.41199332
      1.45816667	      9.84629633	      3.42815108	     -4.26080128	      0.35403449	      1.03418401	      0.31094100	      9.36797120	     -5.89201706	     -1.51718921	    -67.73190510	     -6.92146100	    -12.77547354	      1.07689713	     -9.11087088	      9.25666205	      5.87342100	     -5.23328394	      2.93048375	    -18.27105185	     -6.44649502	    -23.04142869	      2.07646742	     -3.57001249
      1.46233333	      9.82713301	      3.19016136	     -4.12325424	      0.35886661	      1.03469687	      0.31045884	      9.78462962	     -5.58404074	     -1.71120101	    -67.03695327	     -6.23048397	    -12.86733113	      1.03291605	     -9.62251405	      8.99342731	      5.93340220	     -4.81887725	      2.98414027	    -18.13913747	     -6.44613506	    -23.02152652	      2.42197953	     -3.69726024
      1.46650000	      9.82055305	      2.96923940	     -3.99187120	      0.36367033	      1.03516614	      0.30998777	     10.18022279	     -5.29422903	     -1.89159809	    -66.29905070	     -5.52839172	    -12.93733857	      0.99398119	    -10.13823969	      8.74840854	      5.99317182	     -4.41429886	      3.03073788	    -17.99714015	     -6.44594166	    -23.04116195	      2.75919899	     -3.82207727
      1.47066667	      9.86659716	      2.75386307	     -3.86521594	      0.36848125	      1.03564978	      0.30953569	     10.49970815	     -5.01740955	     -2.07195786	    -65.50248435	     -4.84470425	    -12.96958279	      0.89042211	    -10.72754665	      8.50919124	      6.07517079	     -3.97253742	      3.09284781	    -17.83196748	     -6.44643030	    -23.10761962	      3.08645151	     -4.06621600
      1.47483333	      9.82243827	      2.53411047	     -3.73709762	      0.37331307	      1.03597201	      0.30909568	     10.90366691	     -4.72359978	     -2.24253692	    -64.65556111	     -4.17586203	    -13.00537670	      0.84353254	    -11.18952787	      8.25964991	      6.11612360	     -3.59190633	      3.15509312	    -17.70874512	     -6.44610841	    -23.06259448	      3.40892494	     -4.13559540
      1.47900000	      9.82179643	      2.32888172	     -3.61219529	      0.37813661	      1.03628171	      0.30866893	     11.24642036	     -4.45174922	     -2.40812976	    -63.76356833	     -3.50674644	    -13.00334814	      0.78750978	    -11.70123365	      8.02582083	      6.16912958	     -3.20003300	      3.22421455	    -17.56383650	     -6.44532062	    -23.07218595	      3.71603878	     -4.26255508
      1.48316667	      9.86358888	      2.14084199	     -3.49949823	      0.38295265	      1.03658270	      0.30825930	     11.53224909	     -4.20396118	     -2.56306179	    -62.82646110	     -2.86545005	    -12.97772285	      0.68290714	    -12.26811182	      7.81291340	      6.24087960	     -2.78381904	      3.29907608	    -17.40734129	     -6.44539483	    -23.14031784	      4.01843703	     -4.45659602
      1.48733333	      9.86609116	      1.96112749	     -3.37908606	      0.38776558	      1.03677760	      0.30786541	     11.84515028	     -3.95849643	     -2.71368220	    -61.84277233	     -2.22595622	    -12.96565810	      0.55196641	    -12.76822903	      7.60337256	      6.29917863	     -2.41322859	      3.35638701	    -17.27650232	     -6.44742576	    -23.15942255	      4.29001964	     -4.60463071
      1.49150000	      9.86698304	      1.77695222	     -3.26975135	      0.39261267	      1.03692709	      0.30748612	     12.14129557	     -3.70930012	     -2.85456425	    -60.80340141	     -1.64018683	    -12.92749679	      0.44519827	    -13.27129315	      7.39062730	      6.35592639	     -2.03527724	      3.43399286	    -17.15928099	     -6.44861138	    -23.16480058	      4.57334255	     -4.70840323
      1.49566667	      9.84558658	      1.60715101	     -3.15604697	      0.39743596	      1.03698236	      0.30712334	     12.44992665	     -3.47068835	     -2.98504900	    -59.72270022	     -1.06344865	    -12.89508425	      0.37979875	    -13.72524434	      7.19006929	      6.40316225	     -1.70242472	      3.49877243	    -17.05948614	     -6.44907750	    -23.14524670	      4.82418045	     -4.78227996
      1.49983333	      9.86009016	      1.46116439	     -3.05715266	      0.40227104	      1.03700862	      0.30677530	     12.71030676	     -3.26637793	     -3.10727198	    -58.60846914	     -0.53271992	    -12.83861104	      0.27035022	    -14.23842766	      7.01790924	      6.48596944	     -1.32317634	      3.57293537	    -16.95845029	     -6.45131290	    -23.17727780	      5.06305963	     -4.93464392
      1.50400000	      9.83918475	      1.31358733	     -2.95145988	      0.40710007	      1.03695789	      0.30644504	     12.98800930	     -3.05238538	     -3.22037552	    -57.43775731	     -0.02849573	    -12.79482842	      0.20383767	    -14.68006944	      6.84113639	      6.54421233	     -1.01174163	      3.63667028	    -16.88323037	     -6.45315265	    -23.16263531	      5.28923345	     -5.00657874
      1.50816667	      9.81779298	      1.18519162	     -2.85265836	      0.41194088	      1.03683370	      0.30612702	     13.25549516	     -2.86194593	     -3.32487809	    -56.23305688	      0.43368880	    -12.74458719	      0.13886461	    -15.12623275	      6.68442072	      6.62003069	     -0.68721129	      3.70947029	    -16.81249236	     -6.45495001	    -23.14934820	      5.49627462	     -5.10267698
      1.51233333	      9.83583511	      1.06565674	     -2.76271540	      0.41678027	      1.03670838	      0.30582899	     13.46425585	     -2.68452744	     -3.42248712	    -54.98202964	      0.83444385	    -12.69986999	      0.01021586	    -15.63059025	      6.53939531	      6.73334481	     -0.32730504	      3.77183165	    -16.77536784	     -6.46256145	    -23.18567895	      5.70124109	     -5.27170443
      1.51650000	      9.79913198	      0.94627877	     -2.66550613	      0.42162083	      1.03648551	      0.30553667	     13.70972417	     -2.50224253	     -3.51499135	    -53.67540099	      1.20902947	    -12.64613077	     -0.05775558	    -16.03817273	      6.39152214	      6.80697639	     -0.04472163	      3.84566928	    -16.73968248	     -6.46695323	    -23.15432964	      5.89606315	     -5.33090313
      1.52066667	      9.82415588	      0.84395927	     -2.58564562	      0.42646282	      1.03624799	      0.30527816	     13.87850178	     -2.34353041	     -3.59873464	    -52.34000294	      1.51842473	    -12.60541966	     -0.16828849	    -16.53861256	      6.26563469	      6.91782388	      0.29513696	      3.91476000	    -16.72982128	     -6.47691663	    -23.19411866	      6.06852128	     -5.46791590
